<?xml version="1.0" encoding="utf-8"?>
<!-- Generator: Adobe Illustrator 28.2.0, SVG Export Plug-In . SVG Version: 6.00 Build 0)  -->
<svg version="1.1" id="Layer_1" xmlns="http://www.w3.org/2000/svg" xmlns:xlink="http://www.w3.org/1999/xlink" x="0px" y="0px"
	 viewBox="0 0 528.8 158.6" style="enable-background:new 0 0 528.8 158.6;" xml:space="preserve">
<style type="text/css">
	.st0{fill:#00A778;}
	.st1{fill:#ED6A5A;}
	.st2{fill:#F3DE8A;}
</style>
<g>
	<path class="st0" d="M158.6,79.3H79.3C35.5,79.3,0,43.8,0,0h79.3C123.1,0,158.6,35.5,158.6,79.3z"/>
	<path class="st0" d="M158.6,158.6H79.3C35.5,158.6,0,123.1,0,79.3h79.3C123.1,79.3,158.6,114.8,158.6,158.6z"/>
</g>
<polygon class="st1" points="528.8,0 528.8,129 449.5,158.6 370.2,129 370.2,0 449.5,29.6 "/>
<g>
	<path class="st2" d="M343.7,0v79.3c-43.8,0-79.3-35.5-79.3-79.3H343.7z"/>
	<path class="st2" d="M264.4,158.6h-79.3V79.3C228.9,79.3,264.4,114.8,264.4,158.6z"/>
	<path class="st2" d="M185.1,79.3V0h79.3C264.4,43.8,228.9,79.3,185.1,79.3L185.1,79.3z"/>
	<path class="st2" d="M343.7,79.3v79.3h-79.3C264.4,114.8,299.9,79.3,343.7,79.3z"/>
</g>
</svg>
